<svg xmlns="http://www.w3.org/2000/svg" viewBox="0 0 1600 1200" width="1600" height="1200">
  <defs>
    <marker id="arrowhead" markerWidth="10" markerHeight="7" refX="9" refY="3.5" orient="auto">
      <polygon points="0 0, 10 3.5, 0 7" fill="#666"/>
    </marker>
    <filter id="shadow" x="-20%" y="-20%" width="140%" height="140%">
      <feDropShadow dx="2" dy="2" stdDeviation="2" flood-color="#000" flood-opacity="0.15"/>
    </filter>
  </defs>
  
  <!-- Background -->
  <rect width="1600" height="1200" fill="#f5f5f5"/>
  
  <!-- Title -->
  <text x="800" y="40" font-family="sans-serif" font-size="24" font-weight="bold" text-anchor="middle" fill="#333">Issue #43 Matching - 线框图</text>
  
  <!-- ========== SCREEN 1: HOME / CARD STACK ========== -->
  <g transform="translate(60, 80)">
    <rect width="320" height="680" rx="24" fill="#fff" filter="url(#shadow)"/>
    <rect x="0" y="0" width="320" height="44" rx="24" fill="#e0e0e0"/>
    <rect x="0" y="22" width="320" height="22" fill="#e0e0e0"/>
    
    <!-- Status bar -->
    <text x="160" y="30" font-family="sans-serif" font-size="12" text-anchor="middle" fill="#666">9:41</text>
    
    <!-- Mode selector tabs -->
    <rect x="16" y="56" width="288" height="36" rx="18" fill="#eee"/>
    <rect x="20" y="60" width="88" height="28" rx="14" fill="#999"/>
    <text x="64" y="78" font-family="sans-serif" font-size="11" text-anchor="middle" fill="#fff">附近</text>
    <text x="160" y="78" font-family="sans-serif" font-size="11" text-anchor="middle" fill="#666">同城</text>
    <text x="256" y="78" font-family="sans-serif" font-size="11" text-anchor="middle" fill="#666">全国</text>
    
    <!-- Card stack - back card -->
    <rect x="36" y="108" width="248" height="360" rx="16" fill="#ddd" stroke="#bbb" stroke-width="1"/>
    
    <!-- Card stack - front card -->
    <rect x="28" y="100" width="264" height="376" rx="16" fill="#f8f8f8" stroke="#999" stroke-width="2"/>
    <!-- Avatar placeholder -->
    <rect x="28" y="100" width="264" height="280" rx="16" fill="#e8e8e8"/>
    <rect x="28" y="372" width="264" height="4" fill="none"/>
    
    <!-- Profile info -->
    <text x="44" y="404" font-family="sans-serif" font-size="18" font-weight="bold" fill="#333">昵称, 24</text>
    <text x="44" y="428" font-family="sans-serif" font-size="12" fill="#666">📍 2.5km</text>
    <text x="44" y="450" font-family="sans-serif" font-size="12" fill="#666">喜欢旅行、摄影、咖啡 ☕️</text>
    
    <!-- Swipe indicators -->
    <rect x="44" y="120" width="72" height="32" rx="4" fill="#fff" stroke="#999" stroke-width="2" stroke-dasharray="4,2" opacity="0.8"/>
    <text x="80" y="140" font-family="sans-serif" font-size="12" font-weight="bold" text-anchor="middle" fill="#666">PASS</text>
    <rect x="204" y="120" width="72" height="32" rx="4" fill="#fff" stroke="#999" stroke-width="2" stroke-dasharray="4,2" opacity="0.8"/>
    <text x="240" y="140" font-family="sans-serif" font-size="12" font-weight="bold" text-anchor="middle" fill="#666">LIKE</text>
    
    <!-- Action buttons -->
    <circle cx="80" cy="540" r="32" fill="#f0f0f0" stroke="#999" stroke-width="2"/>
    <text x="80" y="546" font-family="sans-serif" font-size="20" text-anchor="middle" fill="#666">✕</text>
    <circle cx="240" cy="540" r="32" fill="#f0f0f0" stroke="#999" stroke-width="2"/>
    <text x="240" y="546" font-family="sans-serif" font-size="20" text-anchor="middle" fill="#666">♥</text>
    
    <!-- Bottom nav -->
    <rect x="0" y="616" width="320" height="64" fill="#f8f8f8" stroke="#eee" stroke-width="1"/>
    <circle cx="80" cy="648" r="16" fill="#999"/>
    <text x="80" y="654" font-family="sans-serif" font-size="12" text-anchor="middle" fill="#fff">🏠</text>
    <circle cx="160" cy="648" r="16" fill="none" stroke="#999" stroke-width="2"/>
    <text x="160" y="654" font-family="sans-serif" font-size="12" text-anchor="middle" fill="#666">💬</text>
    <circle cx="240" cy="648" r="16" fill="none" stroke="#999" stroke-width="2"/>
    <text x="240" y="654" font-family="sans-serif" font-size="12" text-anchor="middle" fill="#666">👤</text>
    
    <!-- Screen label -->
    <text x="160" y="710" font-family="sans-serif" font-size="14" font-weight="bold" text-anchor="middle" fill="#333">首页 - 推荐卡片</text>
    <text x="160" y="730" font-family="sans-serif" font-size="11" text-anchor="middle" fill="#666">Widget: HomePage / SwipeCardStack</text>
  </g>
  
  <!-- ========== SCREEN 2: EMPTY STATE ========== -->
  <g transform="translate(420, 80)">
    <rect width="320" height="680" rx="24" fill="#fff" filter="url(#shadow)"/>
    <rect x="0" y="0" width="320" height="44" rx="24" fill="#e0e0e0"/>
    <rect x="0" y="22" width="320" height="22" fill="#e0e0e0"/>
    <text x="160" y="30" font-family="sans-serif" font-size="12" text-anchor="middle" fill="#666">9:41</text>
    
    <!-- Mode selector tabs -->
    <rect x="16" y="56" width="288" height="36" rx="18" fill="#eee"/>
    <rect x="20" y="60" width="88" height="28" rx="14" fill="#999"/>
    <text x="64" y="78" font-family="sans-serif" font-size="11" text-anchor="middle" fill="#fff">附近</text>
    <text x="160" y="78" font-family="sans-serif" font-size="11" text-anchor="middle" fill="#666">同城</text>
    <text x="256" y="78" font-family="sans-serif" font-size="11" text-anchor="middle" fill="#666">全国</text>
    
    <!-- Empty illustration -->
    <circle cx="160" cy="280" r="60" fill="#eee" stroke="#ddd" stroke-width="2"/>
    <text x="160" y="290" font-family="sans-serif" font-size="32" text-anchor="middle" fill="#bbb">🔍</text>
    <text x="160" y="380" font-family="sans-serif" font-size="16" font-weight="bold" text-anchor="middle" fill="#666">附近暂无可推荐用户</text>
    <text x="160" y="408" font-family="sans-serif" font-size="12" text-anchor="middle" fill="#999">扩大范围或稍后再来看看吧</text>
    <rect x="100" y="440" width="120" height="36" rx="18" fill="#f0f0f0" stroke="#999" stroke-width="1"/>
    <text x="160" y="462" font-family="sans-serif" font-size="12" text-anchor="middle" fill="#666">切换全国</text>
    
    <!-- Bottom nav -->
    <rect x="0" y="616" width="320" height="64" fill="#f8f8f8" stroke="#eee" stroke-width="1"/>
    <circle cx="80" cy="648" r="16" fill="#999"/>
    <text x="80" y="654" font-family="sans-serif" font-size="12" text-anchor="middle" fill="#fff">🏠</text>
    <circle cx="160" cy="648" r="16" fill="none" stroke="#999" stroke-width="2"/>
    <text x="160" y="654" font-family="sans-serif" font-size="12" text-anchor="middle" fill="#666">💬</text>
    <circle cx="240" cy="648" r="16" fill="none" stroke="#999" stroke-width="2"/>
    <text x="240" y="654" font-family="sans-serif" font-size="12" text-anchor="middle" fill="#666">👤</text>
    
    <text x="160" y="710" font-family="sans-serif" font-size="14" font-weight="bold" text-anchor="middle" fill="#333">空状态</text>
    <text x="160" y="730" font-family="sans-serif" font-size="11" text-anchor="middle" fill="#666">Widget: EmptyRecommendationView</text>
  </g>
  
  <!-- ========== SCREEN 3: MATCH SUCCESS MODAL ========== -->
  <g transform="translate(780, 80)">
    <rect width="320" height="680" rx="24" fill="#fff" filter="url(#shadow)"/>
    <rect x="0" y="0" width="320" height="44" rx="24" fill="#e0e0e0"/>
    <rect x="0" y="22" width="320" height="22" fill="#e0e0e0"/>
    <text x="160" y="30" font-family="sans-serif" font-size="12" text-anchor="middle" fill="#666">9:41</text>
    
    <!-- Background dim -->
    <rect x="0" y="44" width="320" height="636" fill="#000" opacity="0.5"/>
    
    <!-- Modal content -->
    <rect x="24" y="160" width="272" height="360" rx="16" fill="#fff" filter="url(#shadow)"/>
    <text x="160" y="200" font-family="sans-serif" font-size="18" font-weight="bold" text-anchor="middle" fill="#333">🎉 配对成功！</text>
    
    <!-- Avatars -->
    <circle cx="120" cy="260" r="36" fill="#ddd" stroke="#999" stroke-width="2"/>
    <text x="120" y="270" font-family="sans-serif" font-size="14" text-anchor="middle" fill="#666">我</text>
    <circle cx="200" cy="260" r="36" fill="#ddd" stroke="#999" stroke-width="2"/>
    <text x="200" y="270" font-family="sans-serif" font-size="14" text-anchor="middle" fill="#666">TA</text>
    <text x="160" y="266" font-family="sans-serif" font-size="16" text-anchor="middle" fill="#999">💕</text>
    
    <text x="160" y="330" font-family="sans-serif" font-size="14" text-anchor="middle" fill="#666">你们互相喜欢了对方</text>
    <text x="160" y="354" font-family="sans-serif" font-size="12" text-anchor="middle" fill="#999">现在可以开始聊天啦</text>
    
    <!-- Buttons -->
    <rect x="48" y="390" width="224" height="44" rx="22" fill="#999"/>
    <text x="160" y="418" font-family="sans-serif" font-size="14" font-weight="bold" text-anchor="middle" fill="#fff">立即聊天</text>
    <rect x="48" y="450" width="224" height="44" rx="22" fill="#f0f0f0" stroke="#999" stroke-width="1"/>
    <text x="160" y="478" font-family="sans-serif" font-size="14" text-anchor="middle" fill="#666">继续滑动</text>
    
    <text x="160" y="710" font-family="sans-serif" font-size="14" font-weight="bold" text-anchor="middle" fill="#333">配对成功弹窗</text>
    <text x="160" y="730" font-family="sans-serif" font-size="11" text-anchor="middle" fill="#666">Widget: MatchSuccessDialog</text>
  </g>
  
  <!-- ========== SCREEN 4: MATCH LIST ========== -->
  <g transform="translate(1140, 80)">
    <rect width="320" height="680" rx="24" fill="#fff" filter="url(#shadow)"/>
    <rect x="0" y="0" width="320" height="44" rx="24" fill="#e0e0e0"/>
    <rect x="0" y="22" width="320" height="22" fill="#e0e0e0"/>
    <text x="160" y="30" font-family="sans-serif" font-size="12" text-anchor="middle" fill="#666">9:41</text>
    
    <!-- Header -->
    <text x="160" y="76" font-family="sans-serif" font-size="16" font-weight="bold" text-anchor="middle" fill="#333">我的配对</text>
    
    <!-- Match list items -->
    <g transform="translate(16, 100)">
      <!-- Item 1 -->
      <rect width="288" height="72" rx="8" fill="#f8f8f8" stroke="#eee" stroke-width="1"/>
      <circle cx="36" cy="36" r="24" fill="#ddd"/>
      <text x="72" y="32" font-family="sans-serif" font-size="14" font-weight="bold" fill="#333">小林</text>
      <text x="72" y="52" font-family="sans-serif" font-size="11" fill="#999">2小时前配对</text>
      <rect x="240" y="20" width="36" height="32" rx="16" fill="#f0f0f0" stroke="#999" stroke-width="1"/>
      <text x="258" y="40" font-family="sans-serif" font-size="12" text-anchor="middle" fill="#666">💬</text>
      
      <!-- Item 2 -->
      <g transform="translate(0, 84)">
        <rect width="288" height="72" rx="8" fill="#f8f8f8" stroke="#eee" stroke-width="1"/>
        <circle cx="36" cy="36" r="24" fill="#ddd"/>
        <text x="72" y="32" font-family="sans-serif" font-size="14" font-weight="bold" fill="#333">阿杰</text>
        <text x="72" y="52" font-family="sans-serif" font-size="11" fill="#999">昨天配对</text>
        <rect x="240" y="20" width="36" height="32" rx="16" fill="#f0f0f0" stroke="#999" stroke-width="1"/>
        <text x="258" y="40" font-family="sans-serif" font-size="12" text-anchor="middle" fill="#666">💬</text>
      </g>
      
      <!-- Item 3 -->
      <g transform="translate(0, 168)">
        <rect width="288" height="72" rx="8" fill="#f8f8f8" stroke="#eee" stroke-width="1"/>
        <circle cx="36" cy="36" r="24" fill="#ddd"/>
        <text x="72" y="32" font-family="sans-serif" font-size="14" font-weight="bold" fill="#333">Alice</text>
        <text x="72" y="52" font-family="sans-serif" font-size="11" fill="#999">3天前配对</text>
        <rect x="240" y="20" width="36" height="32" rx="16" fill="#f0f0f0" stroke="#999" stroke-width="1"/>
        <text x="258" y="40" font-family="sans-serif" font-size="12" text-anchor="middle" fill="#666">💬</text>
      </g>
    </g>
    
    <!-- Bottom nav -->
    <rect x="0" y="616" width="320" height="64" fill="#f8f8f8" stroke="#eee" stroke-width="1"/>
    <circle cx="80" cy="648" r="16" fill="none" stroke="#999" stroke-width="2"/>
    <text x="80" y="654" font-family="sans-serif" font-size="12" text-anchor="middle" fill="#666">🏠</text>
    <circle cx="160" cy="648" r="16" fill="#999"/>
    <text x="160" y="654" font-family="sans-serif" font-size="12" text-anchor="middle" fill="#fff">💬</text>
    <circle cx="240" cy="648" r="16" fill="none" stroke="#999" stroke-width="2"/>
    <text x="240" y="654" font-family="sans-serif" font-size="12" text-anchor="middle" fill="#666">👤</text>
    
    <text x="160" y="710" font-family="sans-serif" font-size="14" font-weight="bold" text-anchor="middle" fill="#333">匹配列表</text>
    <text x="160" y="730" font-family="sans-serif" font-size="11" text-anchor="middle" fill="#666">Widget: MatchListPage / MatchListItem</text>
  </g>
  
  <!-- ========== FLOW DIAGRAM ========== -->
  <g transform="translate(60, 820)">
    <rect width="1400" height="340" rx="12" fill="#fff" filter="url(#shadow)"/>
    <text x="700" y="32" font-family="sans-serif" font-size="16" font-weight="bold" text-anchor="middle" fill="#333">用户流程图</text>
    
    <!-- Flow nodes -->
    <rect x="40" y="60" width="120" height="48" rx="8" fill="#e8e8e8" stroke="#999" stroke-width="2"/>
    <text x="100" y="88" font-family="sans-serif" font-size="12" text-anchor="middle" fill="#333">进入首页</text>
    
    <rect x="200" y="60" width="140" height="48" rx="8" fill="#e8e8e8" stroke="#999" stroke-width="2"/>
    <text x="270" y="88" font-family="sans-serif" font-size="12" text-anchor="middle" fill="#333">加载推荐卡片</text>
    
    <rect x="400" y="60" width="120" height="48" rx="24" fill="#f5f5f5" stroke="#999" stroke-width="2" stroke-dasharray="4,2"/>
    <text x="460" y="88" font-family="sans-serif" font-size="12" text-anchor="middle" fill="#333">空数据?</text>
    
    <rect x="560" y="60" width="140" height="48" rx="8" fill="#e8e8e8" stroke="#999" stroke-width="2"/>
    <text x="630" y="88" font-family="sans-serif" font-size="12" text-anchor="middle" fill="#333">展示空状态</text>
    
    <rect x="400" y="140" width="140" height="48" rx="8" fill="#e8e8e8" stroke="#999" stroke-width="2"/>
    <text x="470" y="168" font-family="sans-serif" font-size="12" text-anchor="middle" fill="#333">滑动卡片</text>
    
    <rect x="600" y="140" width="160" height="48" rx="24" fill="#f5f5f5" stroke="#999" stroke-width="2" stroke-dasharray="4,2"/>
    <text x="680" y="168" font-family="sans-serif" font-size="12" text-anchor="middle" fill="#333">双向喜欢?</text>
    
    <rect x="820" y="140" width="160" height="48" rx="8" fill="#e8e8e8" stroke="#999" stroke-width="2"/>
    <text x="900" y="168" font-family="sans-serif" font-size="12" text-anchor="middle" fill="#333">展示配对成功</text>
    
    <rect x="820" y="220" width="160" height="48" rx="8" fill="#e8e8e8" stroke="#999" stroke-width="2"/>
    <text x="900" y="248" font-family="sans-serif" font-size="12" text-anchor="middle" fill="#333">继续滑动</text>
    
    <rect x="1020" y="140" width="140" height="48" rx="8" fill="#e8e8e8" stroke="#999" stroke-width="2"/>
    <text x="1090" y="168" font-family="sans-serif" font-size="12" text-anchor="middle" fill="#333">切换模式/下拉</text>
    
    <rect x="1020" y="220" width="140" height="48" rx="8" fill="#e8e8e8" stroke="#999" stroke-width="2"/>
    <text x="1090" y="248" font-family="sans-serif" font-size="12" text-anchor="middle" fill="#333">进入匹配列表</text>
    
    <rect x="1200" y="220" width="140" height="48" rx="8" fill="#e8e8e8" stroke="#999" stroke-width="2"/>
    <text x="1270" y="248" font-family="sans-serif" font-size="12" text-anchor="middle" fill="#333">开始聊天</text>
    
    <!-- Flow arrows -->
    <line x1="160" y1="84" x2="200" y2="84" stroke="#666" stroke-width="2" marker-end="url(#arrowhead)"/>
    <line x1="340" y1="84" x2="400" y2="84" stroke="#666" stroke-width="2" marker-end="url(#arrowhead)"/>
    <line x1="460" y1="108" x2="460" y2="140" stroke="#666" stroke-width="2" marker-end="url(#arrowhead)"/>
    <line x1="520" y1="84" x2="560" y2="84" stroke="#666" stroke-width="2" marker-end="url(#arrowhead)"/>
    <line x1="540" y1="164" x2="600" y2="164" stroke="#666" stroke-width="2" marker-end="url(#arrowhead)"/>
    <line x1="760" y1="164" x2="820" y2="164" stroke="#666" stroke-width="2" marker-end="url(#arrowhead)"/>
    <line x1="900" y1="188" x2="900" y2="220" stroke="#666" stroke-width="2" marker-end="url(#arrowhead)"/>
    <line x1="980" y1="164" x2="1020" y2="164" stroke="#666" stroke-width="2" marker-end="url(#arrowhead)"/>
    <line x1="1090" y1="188" x2="1090" y2="220" stroke="#666" stroke-width="2" marker-end="url(#arrowhead)"/>
    <line x1="1160" y1="244" x2="1200" y2="244" stroke="#666" stroke-width="2" marker-end="url(#arrowhead)"/>
    
    <!-- Return loop -->
    <path d="M 900 268 Q 900 300 680 300 Q 470 300 470 188" fill="none" stroke="#666" stroke-width="2" marker-end="url(#arrowhead)"/>
    <path d="M 1090 268 Q 1090 300 900 300" fill="none" stroke="#666" stroke-width="2"/>
  </g>
  
  <!-- Annotations -->
  <g transform="translate(60, 770)">
    <rect x="0" y="0" width="12" height="12" fill="#999"/>
    <text x="20" y="11" font-family="sans-serif" font-size="11" fill="#666">= 用户操作</text>
    <rect x="120" y="0" width="12" height="12" rx="6" fill="#f5f5f5" stroke="#999" stroke-width="1" stroke-dasharray="3,2"/>
    <text x="140" y="11" font-family="sans-serif" font-size="11" fill="#666">= 条件判断</text>
  </g>
</svg>